<svg xmlns="http://www.w3.org/2000/svg" xmlns:xlink="http://www.w3.org/1999/xlink" version="1.1" width="1000" height="1000" viewBox="0 0 1000 1000" xml:space="preserve">
<desc>Created with Fabric.js 3.5.0</desc>
<defs>
</defs>
<rect x="0" y="0" width="100%" height="100%" fill="rgba(255,255,255,0)"/>
<g transform="matrix(1 0 0 1 500.009 500.0006)" id="493216">
<g style="">
		<g transform="matrix(1.9531 0 0 1.9531 0.0066 0.0093)" id="Layer_1">
<path style="stroke: none; stroke-width: 1; stroke-dasharray: none; stroke-linecap: butt; stroke-dashoffset: 0; stroke-linejoin: miter; stroke-miterlimit: 4; is-custom-font: none; font-file-url: none; fill: rgb(167,167,167); fill-rule: nonzero; opacity: 1;" transform=" translate(-256.0126, -256.0083)" d="M 402.715 244.765 c -27.938 -64.92 -54.314 -126.249 -7.125 -226.496 c 3.004 -6.4 0.265 -14.029 -6.135 -17.041 s -14.029 -0.247 -17.041 6.135 c -52.078 110.675 -22.161 180.238 6.775 247.522 c 1.237 2.867 2.449 5.726 3.678 8.593 c -21.913 16.879 -68.829 30.933 -126.863 30.933 c -58.077 0 -104.95 -14.071 -126.846 -30.967 c 1.22 -2.85 2.432 -5.692 3.661 -8.559 c 28.936 -67.284 58.845 -136.847 6.775 -247.522 c -3.021 -6.391 -10.641 -9.165 -17.041 -6.135 c -6.4 3.012 -9.139 10.641 -6.135 17.041 c 47.189 100.248 20.813 161.576 -7.108 226.496 c -30.276 70.407 -61.584 143.213 7.663 260.936 c 2.389 4.062 6.664 6.315 11.05 6.315 c 2.202 0 4.437 -0.563 6.477 -1.766 c 6.101 -3.584 8.124 -11.435 4.548 -17.527 c -39.287 -66.798 -43.161 -116.777 -33.433 -161.405 c 73.94 20.693 127.179 92.773 137.598 107.834 v 60.057 c 0 7.074 5.726 12.8 12.8 12.8 s 12.8 -5.726 12.8 -12.8 v -60.082 c 10.794 -15.582 63.845 -87.277 137.581 -107.877 c 9.736 44.654 5.888 94.642 -33.416 161.474 c -3.575 6.084 -1.553 13.935 4.548 17.527 c 2.039 1.203 4.275 1.766 6.477 1.766 c 4.386 0 8.661 -2.253 11.05 -6.315 C 464.299 387.978 432.991 315.181 402.715 244.765 z M 256.004 413.194 c -21.29 -28.066 -72.984 -86.919 -143.597 -106.571 c 2.074 -6.34 4.378 -12.604 6.792 -18.841 c 29.474 19.72 78.625 32.23 136.813 32.23 c 58.12 0 107.339 -12.441 136.855 -32.11 c 2.398 6.195 4.685 12.424 6.741 18.722 C 328.988 326.274 277.294 385.128 256.004 413.194 z" stroke-linecap="round"/>
</g>
		<g transform="matrix(1.9531 0 0 1.9531 -0.0339 -50.0063)" id="Layer_1">
<circle style="stroke: none; stroke-width: 1; stroke-dasharray: none; stroke-linecap: butt; stroke-dashoffset: 0; stroke-linejoin: miter; stroke-miterlimit: 4; is-custom-font: none; font-file-url: none; fill: rgb(167,167,167); fill-rule: nonzero; opacity: 1;" cx="0" cy="0" r="12.8"/>
</g>
</g>
</g>
</svg>