<svg xmlns="http://www.w3.org/2000/svg" xmlns:xlink="http://www.w3.org/1999/xlink" version="1.1" width="1000" height="1000" viewBox="0 0 1000 1000" xml:space="preserve">
<desc>Created with Fabric.js 3.5.0</desc>
<defs>
</defs>
<rect x="0" y="0" width="100%" height="100%" fill="rgba(255,255,255,0)"/>
<g transform="matrix(1.9531 0 0 1.9531 499.9936 499.9936)" id="612221">
<g style="" vector-effect="non-scaling-stroke">
		<g transform="matrix(1 0 0 1 152.851 -183.1625)" id="Layer_2">
<line style="stroke: rgb(167,167,167); stroke-width: 15; stroke-dasharray: none; stroke-linecap: round; stroke-dashoffset: 0; stroke-linejoin: round; stroke-miterlimit: 10; is-custom-font: none; font-file-url: none; fill: none; fill-rule: evenodd; opacity: 1;" x1="0.0020000000000095497" y1="-0.7235000000000014" x2="-0.0020000000000095497" y2="0.7235000000000014"/>
</g>
		<g transform="matrix(1 0 0 1 152.7525 -148.3845)" id="Layer_2">
<line style="stroke: rgb(167,167,167); stroke-width: 15; stroke-dasharray: none; stroke-linecap: round; stroke-dashoffset: 0; stroke-linejoin: round; stroke-miterlimit: 10; is-custom-font: none; font-file-url: none; fill: none; fill-rule: evenodd; opacity: 1;" x1="0.0024999999999977263" y1="-0.7235000000000014" x2="-0.0024999999999977263" y2="0.7235000000000014"/>
</g>
		<g transform="matrix(1 0 0 1 170.191 -165.724)" id="Layer_2">
<line style="stroke: rgb(167,167,167); stroke-width: 15; stroke-dasharray: none; stroke-linecap: round; stroke-dashoffset: 0; stroke-linejoin: round; stroke-miterlimit: 10; is-custom-font: none; font-file-url: none; fill: none; fill-rule: evenodd; opacity: 1;" x1="0.724000000000018" y1="0.0020000000000024443" x2="-0.724000000000018" y2="-0.0020000000000024443"/>
</g>
		<g transform="matrix(1 0 0 1 135.413 -165.823)" id="Layer_2">
<line style="stroke: rgb(167,167,167); stroke-width: 15; stroke-dasharray: none; stroke-linecap: round; stroke-dashoffset: 0; stroke-linejoin: round; stroke-miterlimit: 10; is-custom-font: none; font-file-url: none; fill: none; fill-rule: evenodd; opacity: 1;" x1="0.7239999999999895" y1="0.0020000000000024443" x2="-0.7239999999999895" y2="-0.0020000000000024443"/>
</g>
		<g transform="matrix(1 0 0 1 199.851 60.8375)" id="Layer_2">
<line style="stroke: rgb(167,167,167); stroke-width: 15; stroke-dasharray: none; stroke-linecap: round; stroke-dashoffset: 0; stroke-linejoin: round; stroke-miterlimit: 10; is-custom-font: none; font-file-url: none; fill: none; fill-rule: evenodd; opacity: 1;" x1="0.0020000000000095497" y1="-0.7235000000000014" x2="-0.0020000000000095497" y2="0.7235000000000014"/>
</g>
		<g transform="matrix(1 0 0 1 199.7525 95.6155)" id="Layer_2">
<line style="stroke: rgb(167,167,167); stroke-width: 15; stroke-dasharray: none; stroke-linecap: round; stroke-dashoffset: 0; stroke-linejoin: round; stroke-miterlimit: 10; is-custom-font: none; font-file-url: none; fill: none; fill-rule: evenodd; opacity: 1;" x1="0.0024999999999977263" y1="-0.7235000000000014" x2="-0.0024999999999977263" y2="0.7235000000000014"/>
</g>
		<g transform="matrix(1 0 0 1 217.191 78.276)" id="Layer_2">
<line style="stroke: rgb(167,167,167); stroke-width: 15; stroke-dasharray: none; stroke-linecap: round; stroke-dashoffset: 0; stroke-linejoin: round; stroke-miterlimit: 10; is-custom-font: none; font-file-url: none; fill: none; fill-rule: evenodd; opacity: 1;" x1="0.724000000000018" y1="0.0020000000000095497" x2="-0.724000000000018" y2="-0.0020000000000095497"/>
</g>
		<g transform="matrix(1 0 0 1 182.413 78.177)" id="Layer_2">
<line style="stroke: rgb(167,167,167); stroke-width: 15; stroke-dasharray: none; stroke-linecap: round; stroke-dashoffset: 0; stroke-linejoin: round; stroke-miterlimit: 10; is-custom-font: none; font-file-url: none; fill: none; fill-rule: evenodd; opacity: 1;" x1="0.7239999999999895" y1="0.001999999999981128" x2="-0.7239999999999895" y2="-0.001999999999981128"/>
</g>
		<g transform="matrix(1 0 0 1 -200.149 38.8375)" id="Layer_2">
<line style="stroke: rgb(167,167,167); stroke-width: 15; stroke-dasharray: none; stroke-linecap: round; stroke-dashoffset: 0; stroke-linejoin: round; stroke-miterlimit: 10; is-custom-font: none; font-file-url: none; fill: none; fill-rule: evenodd; opacity: 1;" x1="0.0020000000000024443" y1="-0.7235000000000014" x2="-0.0020000000000024443" y2="0.7235000000000014"/>
</g>
		<g transform="matrix(1 0 0 1 -200.2475 73.6155)" id="Layer_2">
<line style="stroke: rgb(167,167,167); stroke-width: 15; stroke-dasharray: none; stroke-linecap: round; stroke-dashoffset: 0; stroke-linejoin: round; stroke-miterlimit: 10; is-custom-font: none; font-file-url: none; fill: none; fill-rule: evenodd; opacity: 1;" x1="0.002500000000001279" y1="-0.7235000000000014" x2="-0.002500000000001279" y2="0.7235000000000014"/>
</g>
		<g transform="matrix(1 0 0 1 -182.809 56.276)" id="Layer_2">
<line style="stroke: rgb(167,167,167); stroke-width: 15; stroke-dasharray: none; stroke-linecap: round; stroke-dashoffset: 0; stroke-linejoin: round; stroke-miterlimit: 10; is-custom-font: none; font-file-url: none; fill: none; fill-rule: evenodd; opacity: 1;" x1="0.7240000000000038" y1="0.0020000000000095497" x2="-0.7240000000000038" y2="-0.0020000000000095497"/>
</g>
		<g transform="matrix(1 0 0 1 -217.587 56.177)" id="Layer_2">
<line style="stroke: rgb(167,167,167); stroke-width: 15; stroke-dasharray: none; stroke-linecap: round; stroke-dashoffset: 0; stroke-linejoin: round; stroke-miterlimit: 10; is-custom-font: none; font-file-url: none; fill: none; fill-rule: evenodd; opacity: 1;" x1="0.7240000000000002" y1="0.001999999999981128" x2="-0.7240000000000002" y2="-0.001999999999981128"/>
</g>
		<g transform="matrix(1 0 0 1 -141.149 168.8375)" id="Layer_2">
<line style="stroke: rgb(167,167,167); stroke-width: 15; stroke-dasharray: none; stroke-linecap: round; stroke-dashoffset: 0; stroke-linejoin: round; stroke-miterlimit: 10; is-custom-font: none; font-file-url: none; fill: none; fill-rule: evenodd; opacity: 1;" x1="0.001999999999995339" y1="-0.7235000000000014" x2="-0.001999999999995339" y2="0.7235000000000014"/>
</g>
		<g transform="matrix(1 0 0 1 -141.2475 203.6155)" id="Layer_2">
<line style="stroke: rgb(167,167,167); stroke-width: 15; stroke-dasharray: none; stroke-linecap: round; stroke-dashoffset: 0; stroke-linejoin: round; stroke-miterlimit: 10; is-custom-font: none; font-file-url: none; fill: none; fill-rule: evenodd; opacity: 1;" x1="0.0024999999999977263" y1="-0.7235000000000014" x2="-0.0024999999999977263" y2="0.7235000000000014"/>
</g>
		<g transform="matrix(1 0 0 1 -123.809 186.276)" id="Layer_2">
<line style="stroke: rgb(167,167,167); stroke-width: 15; stroke-dasharray: none; stroke-linecap: round; stroke-dashoffset: 0; stroke-linejoin: round; stroke-miterlimit: 10; is-custom-font: none; font-file-url: none; fill: none; fill-rule: evenodd; opacity: 1;" x1="0.7239999999999895" y1="0.0020000000000095497" x2="-0.7239999999999895" y2="-0.0020000000000095497"/>
</g>
		<g transform="matrix(1 0 0 1 -158.587 186.177)" id="Layer_2">
<line style="stroke: rgb(167,167,167); stroke-width: 15; stroke-dasharray: none; stroke-linecap: round; stroke-dashoffset: 0; stroke-linejoin: round; stroke-miterlimit: 10; is-custom-font: none; font-file-url: none; fill: none; fill-rule: evenodd; opacity: 1;" x1="0.7240000000000038" y1="0.001999999999981128" x2="-0.7240000000000038" y2="-0.001999999999981128"/>
</g>
		<g transform="matrix(1 0 0 1 -78.198 101.226)" id="Layer_2">
<path style="stroke: rgb(167,167,167); stroke-width: 15; stroke-dasharray: none; stroke-linecap: round; stroke-dashoffset: 0; stroke-linejoin: round; stroke-miterlimit: 10; is-custom-font: none; font-file-url: none; fill: none; fill-rule: nonzero; opacity: 1;" transform=" translate(-177.802, -357.226)" d="M 177.802 314.818 l 3.445 15.531 c 2.595 11.7 11.732 20.837 23.432 23.432 l 15.531 3.445 l -15.531 3.445 c -11.7 2.595 -20.837 11.732 -23.432 23.432 l -3.445 15.531 l -3.445 -15.531 c -2.595 -11.7 -11.732 -20.837 -23.432 -23.432 l -15.531 -3.445 l 15.531 -3.445 c 11.7 -2.595 20.837 -11.732 23.432 -23.432 L 177.802 314.818 z" stroke-linecap="round"/>
</g>
		<g transform="matrix(1 0 0 1 -61.3618 -91.6003)" id="Layer_2">
<path style="stroke: rgb(167,167,167); stroke-width: 15; stroke-dasharray: none; stroke-linecap: round; stroke-dashoffset: 0; stroke-linejoin: round; stroke-miterlimit: 10; is-custom-font: none; font-file-url: none; fill: none; fill-rule: nonzero; opacity: 1;" transform=" translate(-194.6383, -164.3998)" d="M 205.989 277.131 l -63.52 -193.732 c -3.912 -13.034 3.484 -26.772 16.518 -30.684 l 0 0 c 13.034 -3.912 26.772 3.484 30.684 16.518 l 58.183 178.424" stroke-linecap="round"/>
</g>
		<g transform="matrix(1 0 0 1 33.0432 -127.5863)" id="Layer_2">
<path style="stroke: rgb(167,167,167); stroke-width: 15; stroke-dasharray: none; stroke-linecap: round; stroke-dashoffset: 0; stroke-linejoin: round; stroke-miterlimit: 10; is-custom-font: none; font-file-url: none; fill: none; fill-rule: nonzero; opacity: 1;" transform=" translate(-289.0433, -128.4138)" d="M 295.056 233.491 L 236.874 55.067 c -3.912 -13.034 3.484 -26.772 16.518 -30.684 l 0 0 c 13.034 -3.912 26.772 3.484 30.684 16.518 l 58.183 178.424" stroke-linecap="round"/>
</g>
		<g transform="matrix(1 0 0 1 116.5322 7.2672)" id="Layer_2">
<path style="stroke: rgb(167,167,167); stroke-width: 15; stroke-dasharray: none; stroke-linecap: round; stroke-dashoffset: 0; stroke-linejoin: round; stroke-miterlimit: 10; is-custom-font: none; font-file-url: none; fill: none; fill-rule: nonzero; opacity: 1;" transform=" translate(-372.5323, -263.2673)" d="M 342.258 219.326 L 291.853 66.816 c -3.912 -13.034 3.484 -26.772 16.518 -30.684 l 0 0 c 13.034 -3.912 26.772 3.484 30.684 16.518 l 67.771 207.9 c 5.261 17.531 7.011 35.929 5.149 54.138 v 0 c -1.862 18.209 -0.112 36.606 5.149 54.138 l 37.134 122.623" stroke-linecap="round"/>
</g>
		<g transform="matrix(1 0 0 1 -16.5198 -121.2873)" id="Layer_2">
<path style="stroke: rgb(167,167,167); stroke-width: 15; stroke-dasharray: none; stroke-linecap: round; stroke-dashoffset: 0; stroke-linejoin: round; stroke-miterlimit: 10; is-custom-font: none; font-file-url: none; fill: none; fill-rule: nonzero; opacity: 1;" transform=" translate(-239.4803, -134.7128)" d="M 247.854 247.657 L 184.95 53.499 c -3.912 -13.034 3.484 -26.772 16.518 -30.684 l 0 0 c 13.034 -3.912 26.772 3.484 30.684 16.518 l 62.905 194.158" stroke-linecap="round"/>
</g>
		<g transform="matrix(1 0 0 1 11.938 177.368)" id="Layer_2">
<path style="stroke: rgb(167,167,167); stroke-width: 15; stroke-dasharray: none; stroke-linecap: round; stroke-dashoffset: 0; stroke-linejoin: round; stroke-miterlimit: 10; is-custom-font: none; font-file-url: none; fill: none; fill-rule: nonzero; opacity: 1;" transform=" translate(-267.938, -433.368)" d="M 245.548 375.809 c 7.429 3.154 13.069 9.451 15.389 17.182 l 29.391 97.936" stroke-linecap="round"/>
</g>
		<g transform="matrix(1 0 0 1 -38.2105 14.3592)" id="Layer_2">
<path style="stroke: rgb(167,167,167); stroke-width: 15; stroke-dasharray: none; stroke-linecap: round; stroke-dashoffset: 0; stroke-linejoin: round; stroke-miterlimit: 10; is-custom-font: none; font-file-url: none; fill: none; fill-rule: nonzero; opacity: 1;" transform=" translate(-217.7895, -270.3592)" d="M 337.608 322.378 c 0 0 -27.033 -66.545 -128.841 -35.992 l -41.004 -18.97 l -15.125 -31.381 c -10.431 -17.64 -33.456 -23.038 -50.64 -11.871 l -4.027 2.294 l 25.739 56.841 c 2.208 4.26 5.047 8.162 8.42 11.575 l 17.177 17.261" stroke-linecap="round"/>
</g>
</g>
</g>
</svg>