<svg xmlns="http://www.w3.org/2000/svg" xmlns:xlink="http://www.w3.org/1999/xlink" version="1.1" width="1000" height="1000" viewBox="0 0 1000 1000" xml:space="preserve">
<desc>Created with Fabric.js 3.5.0</desc>
<defs>
</defs>
<rect x="0" y="0" width="100%" height="100%" fill="rgba(255,255,255,0)"/>
<g transform="matrix(20.8333 0 0 20.8333 499.9992 499.9992)" id="562441">
<g style="" vector-effect="non-scaling-stroke">
		<g transform="matrix(1 0 0 1 0 -11.482)" id="Layer_1">
<path style="stroke: none; stroke-width: 1; stroke-dasharray: none; stroke-linecap: butt; stroke-dashoffset: 0; stroke-linejoin: miter; stroke-miterlimit: 4; is-custom-font: none; font-file-url: none; fill: rgb(255,85,170); fill-rule: nonzero; opacity: 1;" transform=" translate(-24, -12.5181)" d="M 46.34 20.52 l -21 -19 a 2 2 0 0 0 -2.68 0 l -21 19 a 2 2 0 1 0 2.68 3 L 24 5.7 L 43.66 23.48 a 2 2 0 0 0 2.68 -3 Z" stroke-linecap="round"/>
</g>
		<g transform="matrix(1 0 0 1 0 12.5)" id="Layer_1">
<path style="stroke: none; stroke-width: 1; stroke-dasharray: none; stroke-linecap: butt; stroke-dashoffset: 0; stroke-linejoin: miter; stroke-miterlimit: 4; is-custom-font: none; font-file-url: none; fill: rgb(255,85,170); fill-rule: nonzero; opacity: 1;" transform=" translate(-24, -36.5)" d="M 42 26 a 2 2 0 0 0 -2 2 V 43 H 8 V 28 a 2 2 0 0 0 -4 0 V 45 a 2 2 0 0 0 2 2 H 42 a 2 2 0 0 0 2 -2 V 28 A 2 2 0 0 0 42 26 Z" stroke-linecap="round"/>
</g>
</g>
</g>
</svg>