<svg xmlns="http://www.w3.org/2000/svg" xmlns:xlink="http://www.w3.org/1999/xlink" version="1.1" width="1000" height="1000" viewBox="0 0 1000 1000" xml:space="preserve">
<desc>Created with Fabric.js 3.5.0</desc>
<defs>
</defs>
<rect x="0" y="0" width="100%" height="100%" fill="rgba(255,255,255,0)"/>
<g transform="matrix(15.625 0 0 15.625 500 500)" id="757403">
<g style="" vector-effect="non-scaling-stroke">
		<g transform="matrix(-1 0 0 -1 0 0)" id="_3-instagram">
<radialGradient id="SVGID_2" gradientUnits="userSpaceOnUse" gradientTransform="matrix(0.75 0 0 0.75 467.5 597.5)" cx="-578.95" cy="-837.6" r="197.06" fx="-578.95" fy="-837.6">
<stop offset="0%" style="stop-color:rgb(249,237,50);stop-opacity: 1"/>
<stop offset="36%" style="stop-color:rgb(238,42,123);stop-opacity: 1"/>
<stop offset="44%" style="stop-color:rgb(210,42,138);stop-opacity: 1"/>
<stop offset="60%" style="stop-color:rgb(139,42,178);stop-opacity: 1"/>
<stop offset="83%" style="stop-color:rgb(27,42,240);stop-opacity: 1"/>
<stop offset="88%" style="stop-color:rgb(0,42,255);stop-opacity: 1"/>
</radialGradient>
<rect style="stroke: none; stroke-width: 1; stroke-dasharray: none; stroke-linecap: butt; stroke-dashoffset: 0; stroke-linejoin: miter; stroke-miterlimit: 4; is-custom-font: none; font-file-url: none; fill: url(#SVGID_2); fill-rule: nonzero; opacity: 1;" x="-32" y="-32" rx="11.2" ry="11.2" width="64" height="64"/>
</g>
		<g transform="matrix(1 0 0 1 0 0)" id="_3-instagram">
<path style="stroke: none; stroke-width: 1; stroke-dasharray: none; stroke-linecap: butt; stroke-dashoffset: 0; stroke-linejoin: miter; stroke-miterlimit: 4; is-custom-font: none; font-file-url: none; fill: rgb(255,255,255); fill-rule: nonzero; opacity: 1;" transform=" translate(-32, -32)" d="M 44 56 H 20 A 12 12 0 0 1 8 44 V 20 A 12 12 0 0 1 20 8 H 44 A 12 12 0 0 1 56 20 V 44 A 12 12 0 0 1 44 56 Z M 20 12.8 A 7.21 7.21 0 0 0 12.8 20 V 44 A 7.21 7.21 0 0 0 20 51.2 H 44 A 7.21 7.21 0 0 0 51.2 44 V 20 A 7.21 7.21 0 0 0 44 12.8 Z" stroke-linecap="round"/>
</g>
		<g transform="matrix(1 0 0 1 0 0)" id="_3-instagram">
<path style="stroke: none; stroke-width: 1; stroke-dasharray: none; stroke-linecap: butt; stroke-dashoffset: 0; stroke-linejoin: miter; stroke-miterlimit: 4; is-custom-font: none; font-file-url: none; fill: rgb(255,255,255); fill-rule: nonzero; opacity: 1;" transform=" translate(-32, -32)" d="M 32 45.6 A 13.6 13.6 0 1 1 45.6 32 A 13.61 13.61 0 0 1 32 45.6 Z m 0 -22.4 A 8.8 8.8 0 1 0 40.8 32 A 8.81 8.81 0 0 0 32 23.2 Z" stroke-linecap="round"/>
</g>
		<g transform="matrix(1 0 0 1 13.6 -12.8)" id="_3-instagram">
<circle style="stroke: none; stroke-width: 1; stroke-dasharray: none; stroke-linecap: butt; stroke-dashoffset: 0; stroke-linejoin: miter; stroke-miterlimit: 4; is-custom-font: none; font-file-url: none; fill: rgb(255,255,255); fill-rule: nonzero; opacity: 1;" cx="0" cy="0" r="2.4"/>
</g>
</g>
</g>
</svg>