<?xml version="1.0" encoding="UTF-8" standalone="no"?>
<svg
   xmlns:dc="http://purl.org/dc/elements/1.1/"
   xmlns:cc="http://creativecommons.org/ns#"
   xmlns:rdf="http://www.w3.org/1999/02/22-rdf-syntax-ns#"
   xmlns:svg="http://www.w3.org/2000/svg"
   xmlns="http://www.w3.org/2000/svg"
   version="1.1"
   id="svg5674"
   viewBox="0 0 300 84.880342"
   height="84.880341"
   width="300">
  <defs
     id="defs5676" />
  <metadata
     id="metadata5679">
    <rdf:RDF>
      <cc:Work
         rdf:about="">
        <dc:format>image/svg+xml</dc:format>
        <dc:type
           rdf:resource="http://purl.org/dc/dcmitype/StillImage" />
        <dc:title></dc:title>
      </cc:Work>
    </rdf:RDF>
  </metadata>
  <g
     transform="translate(-275.94759,-557.69035)"
     id="layer1">
    <g
       style="fill:#00b48c;fill-opacity:1"
       transform="matrix(4.2932058,0,0,-4.2932058,461.3923,601.62258)"
       id="g5516">
      <path
         id="path5518"
         style="fill:#00b48c;fill-opacity:1;fill-rule:nonzero;stroke:none"
         d="m 0,0 c 0,6.397 -5.442,9.187 -10.972,9.187 -4.284,0 -8.103,-1.521 -9.824,-3.711 l 3.526,0 c 0.303,0 0.651,0.007 1.022,0.366 1.197,1.196 3.167,1.661 5.289,1.661 2.364,0 4.834,-1.247 5.759,-3.363 0.289,-0.674 0.533,-1.62 0.593,-3.804 0.034,-1.652 -0.194,-3.407 -0.578,-4.39 -0.643,-1.662 -2.694,-3.401 -6,-3.401 -3.42,0 -6.034,2.142 -6.034,4.734 0,3.384 4.803,4.938 9.601,4.66 0.044,0.615 -2.517,1.284 -5.056,1.173 -5.645,-0.248 -9.259,-2.491 -9.259,-5.802 0,-3.23 3.575,-6.449 10.686,-6.449 2.836,0 5.848,0.917 7.469,2.309 0.694,-0.795 1.723,-1.257 2.892,-1.257 L 0,-8.087 0,0" />
    </g>
    <g
       style="fill:#00b48c;fill-opacity:1"
       transform="matrix(4.2932058,0,0,-4.2932058,363.04354,562.1809)"
       id="g5520">
      <path
         id="path5522"
         style="fill:#00b48c;fill-opacity:1;fill-rule:nonzero;stroke:none"
         d="m 0,0 -0.887,0 c -1.784,0 -3.125,-0.449 -4.629,-1.461 -0.743,-0.511 -9.972,-7.282 -9.972,-7.282 l 0,5.251 c 0,3.166 -2.382,3.492 -3.493,3.492 l -1.073,0 0,-14.156 c 0,-2.975 3.092,-3.118 3.678,-3.118 l 0.888,0 0,8.34 c 0,0 4.469,-3.741 8.431,-6.75 1.308,-1 3.136,-1.59 5.697,-1.59 l 2.675,0 c -3.581,2.686 -12.148,9.405 -12.148,9.405 L 0,0" />
    </g>
    <g
       style="fill:#00b48c;fill-opacity:1"
       transform="matrix(4.2932058,0,0,-4.2932058,524.50242,634.31517)"
       id="g5524">
      <path
         id="path5526"
         style="fill:#00b48c;fill-opacity:1;fill-rule:nonzero;stroke:none"
         d="m 0,0 c -4.456,0 -7.031,3.575 -7.031,7.979 0,4.401 2.575,7.972 7.031,7.972 4.436,0 7.029,-3.571 7.029,-7.972 C 7.029,3.575 4.445,0 0,0 m 0,17.615 c -6.497,0 -11.76,-4.321 -11.76,-9.647 0,-5.337 5.263,-9.658 11.76,-9.658 6.478,0 11.75,4.321 11.75,9.658 0,5.326 -5.272,9.647 -11.75,9.647" />
    </g>
  </g>
</svg>
