<svg xmlns="http://www.w3.org/2000/svg" xmlns:xlink="http://www.w3.org/1999/xlink" version="1.1" width="1000" height="1000" viewBox="0 0 1000 1000" xml:space="preserve">
<desc>Created with Fabric.js 3.5.0</desc>
<defs>
</defs>
<rect x="0" y="0" width="100%" height="100%" fill="rgba(255,255,255,0)"/>
<g transform="matrix(2.2127 0 0 2.116 500.4911 500.5086)" id="300536">
<path style="stroke: none; stroke-width: 1; stroke-dasharray: none; stroke-linecap: butt; stroke-dashoffset: 0; stroke-linejoin: miter; stroke-miterlimit: 4; is-custom-font: none; font-file-url: none; fill: rgb(167,167,167); fill-rule: nonzero; opacity: 1;" vector-effect="non-scaling-stroke" transform=" translate(-256.0142, -252.679)" d="M 329.4 16.38 c 20.7 13.71 33.6 29.78 39.1 48.03 c 7.7 25.32 0.6 52.79 -15.1 80.89 c -2.2 3.9 -4.3 7.7 -6.3 11.5 c 21.2 42.5 38.6 84.8 44.4 128.3 c 4.9 17.3 -25.6 32.3 -23.8 44.5 c 2.4 12.6 9.3 17.2 18.6 22.6 c 11.4 6.2 23.2 13.3 26.8 25 c 5.8 21 13.4 31.6 19.7 37 c 6.3 5.4 11.4 6.3 15.3 6.8 c 10.8 1.2 22.5 -1.2 28.9 -4.7 c 4.2 -2.3 6 -5.2 4.4 -7.9 c -19.6 -36.2 -53.5 -73.4 -54 -114.3 c 0.6 -60.2 -22.8 -129.8 -13.7 -196.25 c 4 -29.33 3.5 -44.93 -1.2 -52.6 c -16.8 -27.67 -54.3 -27.75 -83.1 -28.87 z M 30.05 18.72 C 76.23 100.3 192 102.1 276.4 99.03 L 265 114.1 c -25.3 33.5 -29.9 62.3 -29.7 92.5 c 0.3 30.3 6.3 61.8 1.7 97.4 c -2.2 17.3 -14.5 28.6 -24.2 37.5 c -4.9 5.7 -15.9 11.5 -16.1 19.7 c -0.1 16.2 2.7 24.5 6.2 32.3 c 3.5 7.7 8.5 15.6 10.1 27.8 c 2 14.9 1.8 26.8 3.2 35.9 c 1.3 9 3.5 15.1 10.7 22.2 c 11.4 9 25.5 10.9 34.8 8.8 c 4.5 -1.1 10.7 -3.9 9 -7.4 c -26.9 -55.9 -11.5 -108.3 -2.5 -161.5 c 9.7 -58.5 31.8 -115.3 69.4 -182.8 c 14.4 -25.8 19.4 -48.02 13.7 -66.89 c -5.6 -18.56 -22 -35.81 -55.1 -50.89 z" stroke-linecap="round"/>
</g>
</svg>