<svg xmlns="http://www.w3.org/2000/svg" xmlns:xlink="http://www.w3.org/1999/xlink" version="1.1" width="1000" height="1000" viewBox="0 0 1000 1000" xml:space="preserve">
<desc>Created with Fabric.js 3.5.0</desc>
<defs>
</defs>
<rect x="0" y="0" width="100%" height="100%" fill="rgba(255,255,255,0)"/>
<g transform="matrix(15.625 0 0 15.625 500 500)" id="44226">
<g style="" vector-effect="non-scaling-stroke">
		<g transform="matrix(1 0 0 1 0 0)" id="_14-linkedin">
<rect style="stroke: none; stroke-width: 1; stroke-dasharray: none; stroke-linecap: butt; stroke-dashoffset: 0; stroke-linejoin: miter; stroke-miterlimit: 4; is-custom-font: none; font-file-url: none; fill: rgb(0,127,181); fill-rule: nonzero; opacity: 1;" x="-32" y="-32" rx="11.2" ry="11.2" width="64" height="64"/>
</g>
		<g transform="matrix(1 0 0 1 -18.495 7.9)" id="_14-linkedin">
<rect style="stroke: none; stroke-width: 1; stroke-dasharray: none; stroke-linecap: butt; stroke-dashoffset: 0; stroke-linejoin: miter; stroke-miterlimit: 4; is-custom-font: none; font-file-url: none; fill: rgb(255,255,255); fill-rule: nonzero; opacity: 1;" x="-4.515" y="-16.36" rx="0" ry="0" width="9.03" height="32.72"/>
</g>
		<g transform="matrix(1 0 0 1 8.9026 7.5117)" id="_14-linkedin">
<path style="stroke: none; stroke-width: 1; stroke-dasharray: none; stroke-linecap: butt; stroke-dashoffset: 0; stroke-linejoin: miter; stroke-miterlimit: 4; is-custom-font: none; font-file-url: none; fill: rgb(255,255,255); fill-rule: nonzero; opacity: 1;" transform=" translate(-40.9026, -39.5117)" d="M 48.2 23.54 C 41.54 21 36.72 25.3 34.66 27.7 V 23.54 h -9 V 56.26 h 9 V 39 a 8.45 8.45 0 0 1 2.23 -5.92 a 4.75 4.75 0 0 1 3.41 -1.67 A 5.42 5.42 0 0 1 44.24 33 a 6.13 6.13 0 0 1 1.7 4.35 V 56.26 H 56.1 V 36 S 57.23 26.92 48.2 23.54 Z" stroke-linecap="round"/>
</g>
		<g transform="matrix(1 0 0 1 -18.5 -18.62)" id="_14-linkedin">
<circle style="stroke: none; stroke-width: 1; stroke-dasharray: none; stroke-linecap: butt; stroke-dashoffset: 0; stroke-linejoin: miter; stroke-miterlimit: 4; is-custom-font: none; font-file-url: none; fill: rgb(255,255,255); fill-rule: nonzero; opacity: 1;" cx="0" cy="0" r="5.64"/>
</g>
</g>
</g>
</svg>