<svg xmlns="http://www.w3.org/2000/svg" xmlns:xlink="http://www.w3.org/1999/xlink" version="1.1" width="1000" height="1000" viewBox="0 0 1000 1000" xml:space="preserve">
<desc>Created with Fabric.js 3.5.0</desc>
<defs>
</defs>
<rect x="0" y="0" width="100%" height="100%" fill="rgba(255,255,255,0)"/>
<g transform="matrix(21.8566 0 0 21.7609 499.9994 501.0007)" id="726133">
<path style="stroke: none; stroke-width: 1; stroke-dasharray: none; stroke-linecap: butt; stroke-dashoffset: 0; stroke-linejoin: miter; stroke-miterlimit: 4; is-custom-font: none; font-file-url: none; fill: rgb(41,171,226); fill-rule: evenodd; opacity: 1;" vector-effect="non-scaling-stroke" transform=" translate(-24, -24)" d="M 24 47 c 0 0 -18 -9.417 -18 -28 C 6 9.059 14.059 1 24 1 s 18 8.059 18 18 C 42 37.583 24 47 24 47 z M 24 3 C 15.178 3 8 10.178 8 19 c 0 14.758 12.462 23.501 16.003 25.687 C 27.547 42.51 40 33.805 40 19 C 40 10.178 32.822 3 24 3 z M 24 28 c -4.971 0 -9 -4.029 -9 -9 s 4.029 -9 9 -9 s 9 4.029 9 9 S 28.971 28 24 28 z M 24 12 c -3.866 0 -7 3.134 -7 7 s 3.134 7 7 7 s 7 -3.134 7 -7 S 27.866 12 24 12 z" stroke-linecap="round"/>
</g>
</svg>