<svg xmlns="http://www.w3.org/2000/svg" xmlns:xlink="http://www.w3.org/1999/xlink" version="1.1" width="1000" height="1000" viewBox="0 0 1000 1000" xml:space="preserve">
<desc>Created with Fabric.js 3.5.0</desc>
<defs>
</defs>
<rect x="0" y="0" width="100%" height="100%" fill="rgba(255,255,255,0)"/>
<g transform="matrix(33.3476 0 0 39.323 500.4998 500.5002)" id="548240">
<path style="stroke: none; stroke-width: 1; stroke-dasharray: none; stroke-linecap: butt; stroke-dashoffset: 0; stroke-linejoin: miter; stroke-miterlimit: 4; is-custom-font: none; font-file-url: none; fill: rgb(255,51,51); fill-rule: nonzero; opacity: 1;" vector-effect="non-scaling-stroke" transform=" translate(-16.0428, -16.0048)" d="M 16 28.72 a 3 3 0 0 1 -2.13 -0.88 L 3.57 17.54 a 8.72 8.72 0 0 1 -2.52 -6.25 a 8.06 8.06 0 0 1 8.14 -8 A 8.06 8.06 0 0 1 15 5.68 l 1 1 l 0.82 -0.82 h 0 a 8.39 8.39 0 0 1 11 -0.89 a 8.25 8.25 0 0 1 0.81 12.36 L 18.13 27.84 A 3 3 0 0 1 16 28.72 Z M 9.15 5.28 A 6.12 6.12 0 0 0 4.89 7 a 6 6 0 0 0 -1.84 4.33 A 6.72 6.72 0 0 0 5 16.13 l 10.3 10.3 a 1 1 0 0 0 1.42 0 L 27.23 15.91 A 6.25 6.25 0 0 0 29 11.11 a 6.18 6.18 0 0 0 -2.43 -4.55 a 6.37 6.37 0 0 0 -8.37 0.71 L 16.71 8.8 a 1 1 0 0 1 -1.42 0 l -1.7 -1.7 a 6.28 6.28 0 0 0 -4.4 -1.82 Z" stroke-linecap="round"/>
</g>
</svg>