<svg xmlns="http://www.w3.org/2000/svg" xmlns:xlink="http://www.w3.org/1999/xlink" version="1.1" width="1000" height="1000" viewBox="0 0 1000 1000" xml:space="preserve">
<desc>Created with Fabric.js 3.5.0</desc>
<defs>
</defs>
<rect x="0" y="0" width="100%" height="100%" fill="rgba(255,255,255,0)"/>
<g transform="matrix(1 0 0 1 499.9999 462.2721)" id="597684">
<g style="">
		<g transform="matrix(4.6774 0.0079 0 4.8444 0.0046 -0.0055)" id="748312">
<rect style="stroke: none; stroke-width: 1; stroke-dasharray: none; stroke-linecap: butt; stroke-dashoffset: 0; stroke-linejoin: miter; stroke-miterlimit: 4; is-custom-font: none; font-file-url: none; fill: none; fill-rule: nonzero; opacity: 1;" x="-128" y="-128" rx="0" ry="0" width="256" height="256"/>
</g>
		<g transform="matrix(4.6774 0.0079 0 4.8444 168.3857 -19.1247)" id="611501">
<path style="stroke: rgb(167,167,167); stroke-width: 12; stroke-dasharray: none; stroke-linecap: round; stroke-dashoffset: 0; stroke-linejoin: round; stroke-miterlimit: 4; is-custom-font: none; font-file-url: none; fill: none; fill-rule: nonzero; opacity: 1;" transform=" translate(-164, -123.9936)" d="M 146.1 128 a 24 24 0 0 1 35.8 0" stroke-linecap="round"/>
</g>
		<g transform="matrix(4.6774 0.0079 0 4.8444 -168.3838 -19.6936)" id="675776">
<path style="stroke: rgb(167,167,167); stroke-width: 12; stroke-dasharray: none; stroke-linecap: round; stroke-dashoffset: 0; stroke-linejoin: round; stroke-miterlimit: 4; is-custom-font: none; font-file-url: none; fill: none; fill-rule: nonzero; opacity: 1;" transform=" translate(-92, -123.9936)" d="M 74.1 128 a 24 24 0 0 1 35.8 0" stroke-linecap="round"/>
</g>
		<g transform="matrix(4.6774 0.0079 0 4.8444 0.0012 251.9065)" id="345938">
<path style="stroke: rgb(167,167,167); stroke-width: 12; stroke-dasharray: none; stroke-linecap: round; stroke-dashoffset: 0; stroke-linejoin: round; stroke-miterlimit: 4; is-custom-font: none; font-file-url: none; fill: none; fill-rule: nonzero; opacity: 1;" transform=" translate(-128, -179.9991)" d="M 154.5 176 a 47.9 47.9 0 0 1 -53 0" stroke-linecap="round"/>
</g>
		<g transform="matrix(4.6774 0.0079 0 4.8444 0.0035 39.4975)" id="163669">
<path style="stroke: rgb(167,167,167); stroke-width: 12; stroke-dasharray: none; stroke-linecap: round; stroke-dashoffset: 0; stroke-linejoin: round; stroke-miterlimit: 4; is-custom-font: none; font-file-url: none; fill: none; fill-rule: nonzero; opacity: 1;" transform=" translate(-128, -136.154)" d="M 216 48.3 a 7.9 7.9 0 0 0 -10.9 -7.4 C 190 46.7 160.9 56 128 56 S 66 46.7 50.9 40.9 A 7.9 7.9 0 0 0 40 48.3 V 104 c 0 70.7 39.4 128 88 128 s 88 -57.3 88 -128 Z" stroke-linecap="round"/>
</g>
</g>
</g>
</svg>