<svg xmlns="http://www.w3.org/2000/svg" xmlns:xlink="http://www.w3.org/1999/xlink" version="1.1" width="1000" height="1000" viewBox="0 0 1000 1000" xml:space="preserve">
<desc>Created with Fabric.js 3.5.0</desc>
<defs>
</defs>
<rect x="0" y="0" width="100%" height="100%" fill="rgba(255,255,255,0)"/>
<g transform="matrix(31.25 0 0 31.25 500 500)" id="902283">
<g style="" vector-effect="non-scaling-stroke">
		<g transform="matrix(1 0 0 1 0 6.4447)" id="user_people_person_users_man">
<path style="stroke: none; stroke-width: 1; stroke-dasharray: none; stroke-linecap: butt; stroke-dashoffset: 0; stroke-linejoin: miter; stroke-miterlimit: 4; is-custom-font: none; font-file-url: none; fill: rgb(250,99,160); fill-rule: nonzero; opacity: 1;" transform=" translate(-16, -22.4447)" d="M 23.74 16.18 a 1 1 0 1 0 -1.41 1.42 A 9 9 0 0 1 25 24 c 0 1.22 -3.51 3 -9 3 s -9 -1.78 -9 -3 a 9 9 0 0 1 2.63 -6.37 a 1 1 0 0 0 0 -1.41 a 1 1 0 0 0 -1.41 0 A 10.92 10.92 0 0 0 5 24 c 0 3.25 5.67 5 11 5 s 11 -1.75 11 -5 A 10.94 10.94 0 0 0 23.74 16.18 Z" stroke-linecap="round"/>
</g>
		<g transform="matrix(1 0 0 1 0 -6)" id="user_people_person_users_man">
<path style="stroke: none; stroke-width: 1; stroke-dasharray: none; stroke-linecap: butt; stroke-dashoffset: 0; stroke-linejoin: miter; stroke-miterlimit: 4; is-custom-font: none; font-file-url: none; fill: rgb(250,99,160); fill-rule: nonzero; opacity: 1;" transform=" translate(-16, -10)" d="M 16 17 a 7 7 0 1 0 -7 -7 A 7 7 0 0 0 16 17 Z M 16 5 a 5 5 0 1 1 -5 5 A 5 5 0 0 1 16 5 Z" stroke-linecap="round"/>
</g>
</g>
</g>
</svg>