<svg xmlns="http://www.w3.org/2000/svg" xmlns:xlink="http://www.w3.org/1999/xlink" version="1.1" width="1000" height="1000" viewBox="0 0 1000 1000" xml:space="preserve">
<desc>Created with Fabric.js 3.5.0</desc>
<defs>
</defs>
<rect x="0" y="0" width="100%" height="100%" fill="rgba(255,255,255,0)"/>
<g transform="matrix(20.8333 0 0 20.8333 499.9992 499.9992)" id="72752">
<g style="" vector-effect="non-scaling-stroke">
		<g transform="matrix(1 0 0 1 0 0)">
<path style="stroke: none; stroke-width: 1; stroke-dasharray: none; stroke-linecap: butt; stroke-dashoffset: 0; stroke-linejoin: miter; stroke-miterlimit: 4; is-custom-font: none; font-file-url: none; fill: rgb(255,255,255); fill-opacity: 0.01; fill-rule: nonzero; opacity: 1;" transform=" translate(-24, -24)" d="M 48 0 H 0 V 48 H 48 V 0 Z" stroke-linecap="round"/>
</g>
		<g transform="matrix(1 0 0 1 0 0)">
<path style="stroke: rgb(255,85,170); stroke-width: 4; stroke-dasharray: none; stroke-linecap: butt; stroke-dashoffset: 0; stroke-linejoin: round; stroke-miterlimit: 4; is-custom-font: none; font-file-url: none; fill: none; fill-rule: nonzero; opacity: 1;" transform=" translate(-24, -24)" d="M 44 14 L 24 4 L 4 14 V 34 L 24 44 L 44 34 V 14 Z" stroke-linecap="round"/>
</g>
		<g transform="matrix(1 0 0 1 -10 -5)">
<path style="stroke: rgb(255,85,170); stroke-width: 4; stroke-dasharray: none; stroke-linecap: round; stroke-dashoffset: 0; stroke-linejoin: round; stroke-miterlimit: 4; is-custom-font: none; font-file-url: none; fill: none; fill-rule: nonzero; opacity: 1;" transform=" translate(-14, -19)" d="M 4 14 L 24 24" stroke-linecap="round"/>
</g>
		<g transform="matrix(1 0 0 1 0 10)">
<path style="stroke: rgb(255,85,170); stroke-width: 4; stroke-dasharray: none; stroke-linecap: round; stroke-dashoffset: 0; stroke-linejoin: round; stroke-miterlimit: 4; is-custom-font: none; font-file-url: none; fill: none; fill-rule: nonzero; opacity: 1;" transform=" translate(-24, -34)" d="M 24 44 V 24" stroke-linecap="round"/>
</g>
		<g transform="matrix(1 0 0 1 10 -5)">
<path style="stroke: rgb(255,85,170); stroke-width: 4; stroke-dasharray: none; stroke-linecap: round; stroke-dashoffset: 0; stroke-linejoin: round; stroke-miterlimit: 4; is-custom-font: none; font-file-url: none; fill: none; fill-rule: nonzero; opacity: 1;" transform=" translate(-34, -19)" d="M 44 14 L 24 24" stroke-linecap="round"/>
</g>
		<g transform="matrix(1 0 0 1 0 -10)">
<path style="stroke: rgb(255,85,170); stroke-width: 4; stroke-dasharray: none; stroke-linecap: round; stroke-dashoffset: 0; stroke-linejoin: round; stroke-miterlimit: 4; is-custom-font: none; font-file-url: none; fill: none; fill-rule: nonzero; opacity: 1;" transform=" translate(-24, -14)" d="M 34 9 L 14 19" stroke-linecap="round"/>
</g>
</g>
</g>
</svg>