<svg xmlns="http://www.w3.org/2000/svg" xmlns:xlink="http://www.w3.org/1999/xlink" version="1.1" width="1000" height="1000" viewBox="0 0 1000 1000" xml:space="preserve">
<desc>Created with Fabric.js 3.5.0</desc>
<defs>
</defs>
<rect x="0" y="0" width="100%" height="100%" fill="rgba(255,255,255,0)"/>
<g transform="matrix(31.25 0 0 31.25 500 500)" id="379963">
<g style="" vector-effect="non-scaling-stroke">
		<g transform="matrix(1 0 0 1 0.003 7.9991)" id="path12606">
<path style="stroke: none; stroke-width: 1; stroke-dasharray: none; stroke-linecap: round; stroke-dashoffset: 0; stroke-linejoin: round; stroke-miterlimit: 4; is-custom-font: none; font-file-url: none; fill: rgb(215,53,54); fill-rule: nonzero; opacity: 1;" transform=" translate(-16.0029, -1044.3613)" d="m 18.2207 1038.8618 c -0.077 0 -0.1519 0.027 -0.21875 0.066 c -0.60658 0.348 -1.29612 0.533 -1.99804 0.5352 c -0.70303 -0.001 -1.39414 -0.1852 -2.00196 -0.5333 c -0.23806 -0.136 -0.54124 -0.055 -0.67968 0.1817 l -4.75196 8.1445 c -0.13971 0.2399 -0.0573 0.5476 0.1836 0.6856 c 4.48567 2.5607 10.01236 2.5607 14.49804 0 c 0.24089 -0.138 0.32331 -0.4457 0.1836 -0.6856 l -4.75391 -8.1465 c -0.0947 -0.1629 -0.27284 -0.2588 -0.46094 -0.248 z m -0.16406 1.1602 l 4.25781 7.2949 c -3.94033 2.0544 -8.68662 2.0505 -12.62695 0 l 4.25586 -7.2852 c 0.63794 0.2822 1.35633 0.4346 2.05859 0.4356 l 0.002 0 c 0.58127 0.03 1.52285 -0.1936 2.05269 -0.4414 z" stroke-linecap="round"/>
</g>
		<g transform="matrix(1 0 0 1 -8.125 -6.9998)" id="path12602">
<path style="stroke: none; stroke-width: 1; stroke-dasharray: none; stroke-linecap: round; stroke-dashoffset: 0; stroke-linejoin: round; stroke-miterlimit: 4; is-custom-font: none; font-file-url: none; fill: rgb(215,53,54); fill-rule: nonzero; opacity: 1;" transform=" translate(-7.875, -1029.3624)" d="m 8.97167 1022.8637 c -0.0775 0 -0.15304 0.026 -0.22061 0.064 c -4.48472 2.5627 -7.25085 7.3036 -7.25106 12.4347 c 0.00003 0.2761 0.22378 0.5 0.4998 0.5 l 9.49627 0 c 0.27529 0 0.49874 -0.2227 0.49981 -0.4981 c 0.002 -1.4109 0.76277 -2.714 2.00116 -3.4202 c 0.24145 -0.1373 0.32474 -0.4452 0.18548 -0.6856 l -4.75205 -8.1492 c -0.0948 -0.1615 -0.27186 -0.2565 -0.4588 -0.2461 z m -0.12104 1.2345 l 4.22295 7.2565 c -1.16583 0.8433 -1.89314 2.0839 -2.04998 3.5003 l -8.51228 0.01 c 0.17028 -4.4066 2.52932 -8.4559 6.30417 -10.8037 z" stroke-linecap="round"/>
</g>
		<g transform="matrix(1 0 0 1 0 -1.0004)" id="path12608">
<path style="stroke: none; stroke-width: 1; stroke-dasharray: none; stroke-linecap: round; stroke-dashoffset: 0; stroke-linejoin: round; stroke-miterlimit: 4; is-custom-font: none; font-file-url: none; fill: rgb(215,53,54); fill-rule: nonzero; opacity: 1;" transform=" translate(-16, -1035.3618)" d="m 16 1032.3618 c -1.65103 0 -3.00003 1.349 -3 3 c -0.00003 1.651 1.34897 3 3 3 c 1.65104 0 3.00003 -1.349 3 -3 c 0.00003 -1.651 -1.34896 -3 -3 -3 z m 0 1 c 1.11062 0 2.00002 0.8895 2 2 c 0.00002 1.1105 -0.88938 2 -2 2 c -1.11061 0 -2.00002 -0.8895 -2 -2 c -0.00002 -1.1105 0.88939 -2 2 -2 z" stroke-linecap="round"/>
</g>
		<g transform="matrix(1 0 0 1 8.125 -6.9998)" id="path15294">
<path style="stroke: none; stroke-width: 1; stroke-dasharray: none; stroke-linecap: round; stroke-dashoffset: 0; stroke-linejoin: round; stroke-miterlimit: 4; is-custom-font: none; font-file-url: none; fill: rgb(215,53,54); fill-rule: nonzero; opacity: 1;" transform=" translate(-24.125, -1029.3624)" d="m 23.02833 1022.8637 c 0.0775 0 0.15304 0.026 0.22061 0.064 c 4.48472 2.5627 7.25085 7.3036 7.25106 12.4347 c -0.00003 0.2761 -0.22378 0.5 -0.4998 0.5 l -9.49627 0 c -0.27529 0 -0.49874 -0.2227 -0.49981 -0.4981 c -0.002 -1.4109 -0.76277 -2.714 -2.00116 -3.4202 c -0.24145 -0.1373 -0.32474 -0.4452 -0.18548 -0.6856 l 4.75205 -8.1492 c 0.0948 -0.1615 0.27186 -0.2565 0.4588 -0.2461 z m 0.12104 1.2345 l -4.22295 7.2565 c 1.16583 0.8433 1.89314 2.0839 2.04998 3.5003 l 8.51228 0.01 c -0.17028 -4.4066 -2.52932 -8.4559 -6.30417 -10.8037 z" stroke-linecap="round"/>
</g>
</g>
</g>
</svg>