<svg xmlns="http://www.w3.org/2000/svg" xmlns:xlink="http://www.w3.org/1999/xlink" version="1.1" width="1000" height="1000" viewBox="0 0 1000 1000" xml:space="preserve">
<desc>Created with Fabric.js 3.5.0</desc>
<defs>
</defs>
<rect x="0" y="0" width="100%" height="100%" fill="rgba(0,0,0,0)"/>
<g transform="matrix(10.0617 0 0 10.4809 500.5011 500.5018)" id="769838">
<path style="stroke: none; stroke-width: 1; stroke-dasharray: none; stroke-linecap: butt; stroke-dashoffset: 0; stroke-linejoin: miter; stroke-miterlimit: 4; is-custom-font: none; font-file-url: none; fill: rgb(251,197,49); fill-rule: nonzero; opacity: 1;" vector-effect="non-scaling-stroke" transform=" translate(-64.0015, -64.112)" d="M 91.046 111.818 c -1.19 0 -2.347 -0.361 -3.341 -1.049 C 87.188 110.402 68.92 97.098 64 93.515 L 40.336 110.74 c -1.039 0.717 -2.194 1.078 -3.382 1.078 c -3.228 0 -5.854 -2.636 -5.854 -5.877 c 0 -0.639 0.114 -1.305 0.339 -1.98 l 0.038 -0.105 c 0.253 -0.71 6.214 -18.996 9.008 -27.575 c -7.342 -5.364 -23.014 -16.808 -23.653 -17.25 c -1.589 -1.114 -2.524 -2.915 -2.524 -4.834 c 0 -3.305 2.608 -5.994 5.815 -5.994 h 29.346 l 8.933 -27.59 c 0.687 -2.446 2.998 -4.207 5.599 -4.207 c 2.604 0 4.915 1.762 5.622 4.283 l 8.947 27.514 h 29.35 c 3.185 0 5.775 2.679 5.775 5.974 c 0 1.932 -0.936 3.74 -2.502 4.838 c -0.671 0.463 -16.339 11.903 -23.678 17.265 c 2.797 8.586 8.764 26.887 9.025 27.621 c 0.246 0.727 0.361 1.396 0.361 2.041 C 96.901 109.183 94.274 111.818 91.046 111.818 z M 64 88.566 l 1.178 0.856 c 8.396 6.116 24.391 17.764 24.824 18.072 c 0.299 0.206 0.669 0.323 1.044 0.323 c 1.023 0 1.855 -0.842 1.855 -1.877 c 0 -0.209 -0.045 -0.447 -0.133 -0.709 c -0.148 -0.371 -6.698 -20.473 -9.506 -29.094 l -0.449 -1.378 l 1.171 -0.854 c 2.486 -1.818 24.313 -17.764 24.944 -18.188 c 0.468 -0.329 0.766 -0.913 0.766 -1.541 c 0 -1.069 -0.813 -1.974 -1.775 -1.974 H 75.663 l -9.869 -30.355 c -0.252 -0.894 -0.964 -1.441 -1.794 -1.441 c -0.829 0 -1.541 0.549 -1.771 1.366 l -9.85 30.431 H 20.123 c -0.984 0 -1.815 0.914 -1.815 1.994 c 0 0.617 0.298 1.193 0.797 1.543 c 0.6 0.403 22.425 16.349 24.911 18.167 l 1.171 0.854 l -0.449 1.379 c -2.716 8.344 -8.937 27.436 -9.504 29.086 h 0.001 c -0.089 0.267 -0.134 0.508 -0.134 0.717 c 0 1.035 0.831 1.877 1.854 1.877 c 0.38 0 0.74 -0.114 1.071 -0.342 L 64 88.566 z" stroke-linecap="round"/>
</g>
<g transform="matrix(12.5 0 0 12.5 500 500)" id="453604">
<g style="" vector-effect="non-scaling-stroke">
		<g transform="matrix(1 0 0 1 0 7)" id="Layer_2">
<path style="stroke: none; stroke-width: 1; stroke-dasharray: none; stroke-linecap: butt; stroke-dashoffset: 0; stroke-linejoin: miter; stroke-miterlimit: 4; is-custom-font: none; font-file-url: none; fill: rgb(251,197,49); fill-rule: nonzero; opacity: 1;" transform=" translate(-16, -23)" d="M 24 30 H 8 a 5 5 0 0 1 -5 -5 a 1 1 0 0 1 0.06 -0.35 A 13.4 13.4 0 0 1 15.54 16 h 0.92 a 13.4 13.4 0 0 1 12.48 8.65 A 1 1 0 0 1 29 25 A 5 5 0 0 1 24 30 Z M 5 25.17 A 3 3 0 0 0 8 28 H 24 a 3 3 0 0 0 3 -2.83 A 11.39 11.39 0 0 0 16.46 18 h -0.92 A 11.39 11.39 0 0 0 5 25.17 Z" stroke-linecap="round"/>
</g>
		<g transform="matrix(1 0 0 1 0 -7)" id="Layer_2">
<path style="stroke: none; stroke-width: 1; stroke-dasharray: none; stroke-linecap: butt; stroke-dashoffset: 0; stroke-linejoin: miter; stroke-miterlimit: 4; is-custom-font: none; font-file-url: none; fill: rgb(251,197,49); fill-rule: nonzero; opacity: 1;" transform=" translate(-16, -9)" d="M 16 15 a 6 6 0 1 1 6 -6 A 6 6 0 0 1 16 15 Z M 16 5 a 4 4 0 1 0 4 4 A 4 4 0 0 0 16 5 Z" stroke-linecap="round"/>
</g>
		<g transform="matrix(1 0 0 1 0 7)" id="Layer_2">
<path style="stroke: none; stroke-width: 1; stroke-dasharray: none; stroke-linecap: butt; stroke-dashoffset: 0; stroke-linejoin: miter; stroke-miterlimit: 4; is-custom-font: none; font-file-url: none; fill: rgb(251,197,49); fill-rule: nonzero; opacity: 1;" transform=" translate(-16, -23)" d="M 24 30 H 8 a 5 5 0 0 1 -5 -5 a 1 1 0 0 1 0.06 -0.35 A 13.4 13.4 0 0 1 15.54 16 h 0.92 a 13.4 13.4 0 0 1 12.48 8.65 A 1 1 0 0 1 29 25 A 5 5 0 0 1 24 30 Z M 5 25.17 A 3 3 0 0 0 8 28 H 24 a 3 3 0 0 0 3 -2.83 A 11.39 11.39 0 0 0 16.46 18 h -0.92 A 11.39 11.39 0 0 0 5 25.17 Z" stroke-linecap="round"/>
</g>
		<g transform="matrix(1 0 0 1 0 0)" id="frame">
<rect style="stroke: none; stroke-width: 1; stroke-dasharray: none; stroke-linecap: butt; stroke-dashoffset: 0; stroke-linejoin: miter; stroke-miterlimit: 4; is-custom-font: none; font-file-url: none; fill: none; fill-rule: nonzero; opacity: 1;" x="-16" y="-16" rx="0" ry="0" width="32" height="32"/>
</g>
</g>
</g>
</svg>