<svg xmlns="http://www.w3.org/2000/svg" xmlns:xlink="http://www.w3.org/1999/xlink" version="1.1" width="1000" height="1000" viewBox="0 0 1000 1000" xml:space="preserve">
<desc>Created with Fabric.js 3.5.0</desc>
<defs>
</defs>
<rect x="0" y="0" width="100%" height="100%" fill="rgba(255,255,255,0)"/>
<g transform="matrix(1.9531 0 0 1.9531 499.9936 499.9936)" id="943547">
<g style="" vector-effect="non-scaling-stroke">
		<g transform="matrix(1 0 0 1 0 0)" id="Layer_1">
<linearGradient id="SVGID_6" gradientUnits="userSpaceOnUse" gradientTransform="matrix(1 0 0 1 -256 -256)" x1="256" y1="0" x2="256" y2="510.1322">
<stop offset="0%" style="stop-color:rgb(65,188,231);stop-opacity: 1"/>
<stop offset="100%" style="stop-color:rgb(34,166,220);stop-opacity: 1"/>
</linearGradient>
<circle style="stroke: none; stroke-width: 1; stroke-dasharray: none; stroke-linecap: butt; stroke-dashoffset: 0; stroke-linejoin: miter; stroke-miterlimit: 4; is-custom-font: none; font-file-url: none; fill: url(#SVGID_6); fill-rule: nonzero; opacity: 1;" cx="0" cy="0" r="256"/>
</g>
		<g transform="matrix(1 0 0 1 -19.9792 7.3107)" id="Layer_1">
<path style="stroke: none; stroke-width: 1; stroke-dasharray: none; stroke-linecap: butt; stroke-dashoffset: 0; stroke-linejoin: miter; stroke-miterlimit: 4; is-custom-font: none; font-file-url: none; fill: rgb(255,255,255); fill-rule: nonzero; opacity: 1;" transform=" translate(-236.0209, -263.3107)" d="M 380.6 147.3 l -45.7 230.5 c 0 0 -6.4 16 -24 8.3 l -105.5 -80.9 L 167 286.7 l -64.6 -21.7 c 0 0 -9.9 -3.5 -10.9 -11.2 c -1 -7.7 11.2 -11.8 11.2 -11.8 l 256.8 -100.7 C 359.5 141.2 380.6 131.9 380.6 147.3 z" stroke-linecap="round"/>
</g>
		<g transform="matrix(1 0 0 1 -7.022 24.5)" id="Layer_1">
<path style="stroke: none; stroke-width: 1; stroke-dasharray: none; stroke-linecap: butt; stroke-dashoffset: 0; stroke-linejoin: miter; stroke-miterlimit: 4; is-custom-font: none; font-file-url: none; fill: rgb(210,228,240); fill-rule: nonzero; opacity: 1;" transform=" translate(-248.978, -280.5)" d="M 197.2 375.2 c 0 0 -3.1 -0.3 -6.9 -12.4 c -3.8 -12.1 -23.3 -76.1 -23.3 -76.1 l 155.1 -98.5 c 0 0 9 -5.4 8.6 0 c 0 0 1.6 1 -3.2 5.4 c -4.8 4.5 -121.8 109.7 -121.8 109.7" stroke-linecap="round"/>
</g>
		<g transform="matrix(1 0 0 1 -34.45 84.1174)" id="Layer_1">
<path style="stroke: none; stroke-width: 1; stroke-dasharray: none; stroke-linecap: butt; stroke-dashoffset: 0; stroke-linejoin: miter; stroke-miterlimit: 4; is-custom-font: none; font-file-url: none; fill: rgb(181,207,228); fill-rule: nonzero; opacity: 1;" transform=" translate(-221.55, -340.1174)" d="M 245.8 336.2 l -41.7 38.1 c 0 0 -3.3 2.5 -6.8 0.9 l 8 -70.7" stroke-linecap="round"/>
</g>
</g>
</g>
</svg>